/* XPM */
static char *_af5561f8d8d49d59c270263d2e756fanD9rqpY1mTtglbES[] = {
/* columns rows colors chars-per-pixel */
"64 64 136 2 ",
"   c #270002",
".  c #2C0003",
"X  c #340504",
"o  c #370805",
"O  c #3A0B04",
"+  c #3E0F08",
"@  c #400F05",
"#  c #441300",
"$  c #491701",
"%  c #4D1A02",
"&  c #411109",
"*  c #521E02",
"=  c #552103",
"-  c #562408",
";  c #7E3D0E",
":  c #803F0E",
">  c #83410E",
",  c #94510A",
"<  c #9A550B",
"1  c #9F590B",
"2  c #965810",
"3  c #9D5E11",
"4  c #A25B0C",
"5  c #A6600F",
"6  c #A46312",
"7  c #A86614",
"8  c #AA6816",
"9  c #B46A12",
"0  c #BA6E13",
"q  c #BD7113",
"w  c #C37614",
"e  c #C67815",
"r  c #C87915",
"t  c #C77A18",
"y  c #CA7C19",
"u  c #CF811A",
"i  c #D6861B",
"p  c #D8871B",
"a  c #D8881C",
"s  c #D9881C",
"d  c #DB891C",
"f  c #DB8A1C",
"g  c #D9891E",
"h  c #DA8A1E",
"j  c #DC8A1C",
"k  c #DF8D1C",
"l  c #DF8E1E",
"z  c #DF8E1F",
"x  c #DC8A1C",
"c  c #E38F1B",
"v  c #E08D1C",
"b  c #E08E1C",
"n  c #E18E1C",
"m  c #E18F1C",
"M  c #E18E1D",
"N  c #E18F1D",
"B  c #E28F1C",
"V  c #E38F1C",
"C  c #E28F1D",
"Z  c #E18F1C",
"A  c #E3901C",
"S  c #E2901D",
"D  c #E3901D",
"F  c #E3911D",
"G  c #E1901F",
"H  c #E2911F",
"J  c #E3911F",
"K  c #E4901C",
"L  c #E4901D",
"P  c #E4911D",
"I  c #E5911D",
"U  c #E5921D",
"Y  c #E6921D",
"T  c #E4911E",
"R  c #E5911E",
"E  c #E5921E",
"W  c #E6921E",
"Q  c #E6931E",
"!  c #E4911D",
"~  c #E9941E",
"^  c #E9941E",
"/  c #E29120",
"(  c #E39120",
")  c #E39220",
"_  c #E39322",
"`  c #E49220",
"'  c #E59320",
"]  c #E69320",
"[  c #E69420",
"{  c #E49220",
"}  c #CF9443",
"|  c #D19542",
" . c #D59843",
".. c #D79C47",
"X. c #D89B44",
"o. c #D99B44",
"O. c #DA9C44",
"+. c #D89C47",
"@. c #D89D47",
"#. c #D99D47",
"$. c #DD9F44",
"%. c #DA9D46",
"&. c #DA9E48",
"*. c #DB9E48",
"=. c #DC9F48",
"-. c #DFA045",
";. c #DFA147",
":. c #DFA247",
">. c #DEA046",
",. c #DFA248",
"<. c #DFA248",
"1. c #E0A145",
"2. c #E1A245",
"3. c #E3A346",
"4. c #E2A245",
"5. c #E0A248",
"6. c #E1A348",
"7. c #E1A448",
"8. c #E3A448",
"9. c #E3A548",
"0. c #E2A449",
"q. c #E3A549",
"w. c #E3A64B",
"e. c #E4A549",
"r. c #E4A649",
"t. c #E6A749",
"y. c #E3A64C",
"u. c #E3A74C",
"i. c #E4A74C",
"p. c #E4A74D",
"a. c #E3A64A",
"s. c #E4A84D",
"d. c #E6A84C",
"f. c #E6A94D",
"g. c #E5A84C",
"h. c #E8AB4D",
/* pixels */
"w w w w w w w w e w w w 4 1 4 4 w w w w r w w w w w r w 4 1 4 1 6 6 6 6 w w w w w e w w w e w w 7 6 6 6 4 1 1 4 w w w w 4 1 4 1 ",
"w w e w w w w w w w w w 4 4 4 4 w w w w w w w w w w w w 4 4 1 4 6 6 6 6 w w w w w w w w w w w w 6 6 6 6 1 4 4 4 w e w w 4 1 4 1 ",
"w w w w w w w w w w w w 4 4 1 4 w w w w w w w w w w w w 4 4 1 4 6 6 6 6 w w w w w w w w w e w w 6 6 6 6 4 1 1 4 q w w w 4 1 1 4 ",
"e e e e r w r w r e e w 4 1 4 4 w w w w r w e e w r w w 4 4 4 4 6 6 6 6 w y w e e e e w w w w w 6 6 6 5 5 4 4 5 w e e w 5 1 4 1 ",
"m m m m m m m m m m m j 4 4 4 4 w w w w m m v v v v ( v w w w q 4 4 4 4 j m v v v A A k w w w w 4 1 1 4 k k k k k A c x 4 1 4 1 ",
"S S m T T V T T T V V m 4 4 1 4 w w w w m T V c V V V m w w w w 4 4 4 4 l T V T T K S m e w w w 4 1 4 5 A T K T A A K c 4 4 1 4 ",
"S V V V V V V m V V T v 4 1 4 4 w r r r V T T ~ V V T m w w w w 4 4 4 4 v T T V K U Y K e w w w 4 4 1 4 k A A S A A c c 4 1 1 4 ",
"m m m m { { { { { { { G 4 1 4 4 0 0 0 0 p g g g V m V m y e e e 4 4 4 4 j T v v s s s p e w e w 4 4 1 4 k v v S S S U x 5 1 4 1 ",
"e e w t 1.w.9.w.e.e.e.-.5 1 4 < O X X o o o o @ q e w t -.9.w.O.4 1 4 4 w e r q # X X & s K A j 4 1 4 4 w r w y 9.w.e.-.6 1 4 1 ",
"w w w e 1.e.w.y.y.e.s.<.5 < 4 < X   . .   .   X 0 e w e w.s.u.w.4 4 4 4 q w w 0 X   . X s U A k 4 1 1 4 w w w w 9.u.u.<.4 4 1 4 ",
"w e w e w.w.w.w.y.w.y.5.4 1 4 < X . . X X . . X q r w e 1.w.s.-.4 1 1 4 w e r q o . . o s ^ T A 4 4 1 4 w w w e 1.w.y.<.4 1 4 1 ",
"w w w e 1.e.w.e.w.w.y.1.5 1 4 < X . . . . . . o 9 q 0 q w.w.u.:.5 1 4 4 0 q q 9 o . . o u s a i 4 4 4 4 w w w e 9.w.y.-.5 4 4 4 ",
"1 4 4 5 l T S { 9.w.s.,.7 6 6 3 X . . . # # # @ o X X & %.g.w.<.4 4 4 < + X X X . . . X X o X + q w w w 4 4 4 6 -.y.w.w.e w q w ",
"1 1 1 4 k T T S 9.w.g.:.8 6 6 3 X . . . # # # # . .   o %.g.w.-.5 1 4 < X . . . . . . . . . . X 0 r w w 4 1 1 4 <.y.w.1.t w e w ",
"1 4 4 4 k T S T w.w.s.<.8 6 7 3 X . . . # # # # . . . o %.g.u.:.5 < 4 < X . . . . . X . . . . X q r w w 4 4 1 5 <.s.u.9.e w w w ",
"4 4 4 4 v T V T 1.w.e.-.3 3 3 2 o . . . # # # # X X   O X.g.w.-.5 < 4 < X . . . . . . . . X . o 9 q 0 0 4 1 1 5 -.e.w.1.e w w w ",
"1 4 4 4 v K A A { ) { g + X X X # # # # # # # # # # # % g ) E l 4 1 4 < X . . X + # # # # # # # X X X + < 4 1 5 m S S S e w w w ",
"4 1 4 4 v K T S V V ~ p X   . . # # # # # # # # # # # % s T A k 5 1 4 < X . . . # $ # # # # # # . . . X < 4 1 4 k K A k e e w e ",
"1 1 1 5 k K A S T m V g o . . X # # # # # $ # # # # # % s Y K k 4 1 4 < X . . . # # # # # # # # . . . X < 4 4 4 k K S A w w w w ",
"4 1 1 4 k T A T V V T p o . . . # # # # # # # # # # # % s U S v 4 1 1 < X . . . # # # # # # # # X . . X < 4 1 4 k T T A e e e e ",
"4 4 4 4 k K S T V V T p o   . . # # # # # # # # # # # % s U A k 5 1 4 < X . . . # # # # # # $ # # # # # < 4 4 4 k K T K m v A v ",
"1 4 4 4 k T S A ( m ~ g o   X . # # # $ # # # # # # # % s K A k 4 1 4 < X . . . # # # # # # # # # # # $ < 4 1 5 k T A T S S T T ",
"4 1 1 4 k T T A T m T g O . . . # # # # # # # $ # # # % x U A v 5 1 4 < o   . . # # # # # # # # # # # $ 1 4 1 4 k T T v K T A S ",
"1 4 4 4 k K T S V V T g o . . X # # # # # # # # # # # % s A A x 4 1 4 < o . . . # # $ # + % # # # # # $ , 1 < 1 k K S A T v T S ",
"4 1 1 4 k K S S T m T s o   X . # # # # # # # # # $ # % q e e w 4 1 4 < X . . . # # # # # # # # # # # # # % # * s U S T S T K T ",
"1 4 4 4 k T T A A m K s o   . . # # # # # # # $ # # # % q w w w 4 1 4 < o . . . # # $ # # # # # # # $ # # # # % s Y S S T v S A ",
"1 4 4 4 k K T v T v ~ p o   . . # $ # # # # # # # # O % q e w w 5 1 4 < X   . . + # $ # # # $ # # # # # # # # % s Y S S S A T v ",
"4 4 4 4 v T K T K T K s & o o o # # # # # # # # % % % = q e w q 4 1 4 < + o o o # # # # # # # # # # # # # # # % x Y ) ) T T K T ",
"1 4 4 4 v K A S T A K S o...&.} % # # # # # + % u s s s e w e w 5 4 1 1  ...>.} % + $ # # # # # # # # # # # # % $.e.w.9.S T m T ",
"4 1 4 4 v K T S T S S ) e.s.h.-.% # $ # # $ # % j ^ K T e w w e 1 1 1 5 9.h.s.>.* + # # $ # $ # % # $ # # # # % %.y.w.e.{ V T V ",
"1 4 1 4 v K A A A v K ) e.w.e.%.% O # # # # + % s T A v e w w q 4 1 1 5 -.u.u.>.% O # + + + + # # # # + # # @ % %.s.w.1.T K m T ",
"4 1 1 4 v K S T S T K T 3.w.g.O.- % % % % % % = s A v v e e e e 5 4 1 5 -.w.u...- % * % % * % % % % % % % % % - O.g.w.9.{ v T V ",
"1 4 4 5 v K A T m T V V ( { ) ) O.%.%.O.x s s a e w e t -.w.w.$.e q q e S S S _ O.%.%.%.%.%.-.%.g s s g %.%.%.$.) S S { T m T V ",
"4 1 4 4 k T S K T V T V m m m ) g.g.g.g.Y K U A e w w e 9.e.w.9.e w w e k A S ) g.s.g.g.g.g.s.e.[ T Y Y e.s.s.g.T v A A S T m T ",
"1 4 1 4 k T v T V T V V ~ T T { 9.u.u.w.[ Y U A e w w e 1.y.g.9.y w e e m T S { w.u.w.w.g.s.s.e.Y S T T e.s.s.e.{ S T A T V T V ",
"4 1 4 4 k K T S T m V m g g a g -.-.:.-.g a s i w w w e 1.w.e.1.q q q q l S m S 1.5.<.w.%.%.%.o.l k k l o.%.&.o.S T S T m T m T ",
"1 4 1 4 k T A A V m ~ g # X o + 1 5 5 1 + X X + q e w e S ) [ g + X X + q r w e e e t q + o o + 1 4 4 1 + o o & g ~ m V T m T V ",
"4 1 4 4 k K S T m G V a X .   X < 1 1 < X . . o 0 e w w v A T i X   . X 0 w w w w w w 0 X   . X < 4 1 < X   . o p T V T V T m T ",
"1 4 4 4 k T T T T T ^ j o . . X 1 4 4 < X . . X q r w r A T ^ x O . . o q e w r e e r q o . . X < 4 4 < X . . o p T m V T V T V ",
"4 4 4 4 v T c V s g j y o . . X , < < , X . . X 9 q q q a s x u X . . X 9 w 0 q 0 0 q 9 X . . X , 1 1 , X .   o p ~ m T m T m T ",
"1 4 4 4 v c K s & X O o . . . . X X X X . . . X $ % % % O X X X . . . X $ % % $ O X X X . . . . $ $ $ $ . . . o p T S T K v T K ",
"4 1 4 4 v c Y p o   . . . . . . . . . . . . . . # # # O . . . . . . . . # # # @ . . . . . . . X @ # # @ X . . o p K S S S T A T ",
"1 4 1 4 v K Y s o . X . . . . . . . . . . . . . # # # # . . . . . . . . # # # # . . . . . . . . # # # # . . . o j ~ K K A T S T ",
"4 1 1 4 v K K p o   . . X . . X . . . . . . . X # $ # # X . . X X . . X # # # # X X . . . X . X # # # # X . . o i s p s S K T v ",
"1 4 4 4 k T K s o . . . # # # # # # # # # # # # # # # # # # # # @ # # # # # # # # # # # # # # # # # # # # # # # % % $ = s K T K ",
"4 4 4 4 k S K s o   X . # # # # # # # # # # $ # # # # # # # # # # # # # # # # # # # # # # # # # # # # $ # # # # # # @ % s K A T ",
"1 4 4 4 v T Y s o .     # # # # # # # # # # # # # # # # # # # # # @ # # # # # $ # # # # # # # # # # # # $ # # # # # # % j T S T ",
"4 1 1 4 k S K s & o o o # # # # # # # # % % % % $ # # # # # # # % % $ % # # # # # # # # # # # # $ $ % $ # # # # # # # % s K v v ",
"1 1 1 4 w w w r p p k u X . . . # # # % | &.-.| % # # # # # # % 9 q w 9 % # # # # # # # # # @ $ 9 w 0 9 % # # # # $ # % q r w e ",
"4 1 4 4 w w w w K K ^ s O . . . # # # % =.h.s.<.% # # # # # # % q e e q % # # # # $ # # # # # * w w w w % # # # # # # % 0 w w w ",
"1 4 1 4 w w w e A A K s X . X . @ # O % &.s.s.%.% # # # # # O % q w w q $ O # # # # @ @ # # # $ 0 w w q $ O # # # # O $ q e w w ",
"4 4 1 4 w w w e v K U s O . . . % * % = %.e.e.O.% # # # % % % = q w w q = % % % % % * * # # @ % 0 w w 0 * % % % % * % = 0 w w w ",
"1 4 1 4 w e w e A S K a o . . X i g p j T V K d % # # % u g s i 4 4 4 4 i s s j d d j i % @ # $ ; > ; > i j s j s s s i 4 4 4 4 ",
"4 1 4 4 w w w w v A U a o . . O j ^ c T c c K p % # # % j ^ T A 4 4 4 4 v ^ U U T V ~ j * @ # $ ; ; ; > l ^ K T U U Y A 4 4 4 4 ",
"4 1 1 4 w w w e S S Y g X . . o p T V V T V Y v % + # % s T K k 4 4 4 4 v T A T A K T p % @ @ # ; ; ; > j T K S K K K v 4 4 4 4 ",
"1 1 1 1 q w w w v m E a O X . O i T m m c v c p = $ # = i A v x 4 4 4 4 j m v v k v v i * $ $ $ ; ; ; : s v v v v A v k 4 1 1 < ",
": : : : 4 4 4 4 w e e w ; ; ; ; w w w w w r w w < < < < 4 4 4 4 4 4 1 4 w w e w 4 4 4 4 < < < < : : ; : 4 4 4 4 e e w w > ; : : ",
"; ; ; : < 4 4 4 w w w q > ; ; ; 0 w w w w w w w 4 4 4 4 4 4 4 < 4 4 1 4 w w w w 4 1 4 4 4 4 4 1 : ; ; : 4 4 4 4 w w w q > ; ; ; ",
"; : ; : 4 4 < 4 w e w w : ; ; ; w w w w w w w w 4 4 4 4 4 4 4 4 4 4 1 4 w w w w 4 4 1 4 4 4 4 1 : ; ; : 1 4 1 4 w w e w > ; ; ; ",
"; ; : : < 4 4 4 q w w q : ; ; : w w w w w w w w 4 4 < 4 4 4 4 4 1 1 1 1 q w w w 4 1 4 4 1 1 1 < : ; ; ; 1 4 1 4 q w w q > ; ; ; ",
"; ; ; : 4 4 4 4 4 4 4 4 : ; ; : 4 4 4 4 w w w w 4 4 4 < 1 4 4 < : : : : 4 4 4 4 4 1 4 1 : : : : ; : ; : 1 1 1 4 4 4 4 4 ; ; ; ; ",
"; : ; : < 4 < 4 4 4 4 < : : ; : < 4 4 4 0 w w w 4 4 4 4 4 1 4 < : ; ; : 1 1 1 1 1 4 4 < : ; ; ; ; ; ; : 1 4 4 1 1 1 4 < > ; ; ; ",
"; ; ; : 1 4 1 4 4 < 4 4 : ; : : < 4 4 4 w w w w 4 4 4 4 1 4 4 1 : ; ; : 1 1 4 4 4 1 4 1 : ; ; ; ; ; ; : 1 4 4 1 4 1 4 1 > ; ; ; ",
"; ; ; : < 4 4 4 4 4 4 < : ; ; : 4 4 < 4 w w w w 4 4 4 < 4 1 4 1 : : ; ; 1 4 4 1 1 4 4 1 : ; ; ; ; ; ; : 1 4 1 4 1 4 4 1 ; ; ; ; "
};
