/* XPM */
static char *result[] = {
/* columns rows colors chars-per-pixel */
"64 64 63 1 ",
"  c #0EBABE",
". c #0EBAC0",
"X c #15C2C6",
"o c #18C2C6",
"O c #16C2C8",
"+ c #18C1C9",
"@ c #3CE0DE",
"# c #3EDFE4",
"$ c #3DDFE8",
"% c #3DE0E4",
"& c #42DEDD",
"* c #4EEBDF",
"= c #52ECDF",
"- c #6EF2DE",
"; c #42DEE2",
": c #40E1E4",
"> c #47EDE4",
", c #4BEDE5",
"< c #4AEDE8",
"1 c #51EBE2",
"2 c #5FF6E6",
"3 c #5FF6EA",
"4 c #65F5E5",
"5 c #6DF3E2",
"6 c #66F8E7",
"7 c #63F6E9",
"8 c #69F5E9",
"9 c #6FFCEF",
"0 c #70F1E1",
"q c #73F7EA",
"w c #7AF7EB",
"e c #72FBEE",
"r c #79F8EC",
"t c #65FCF4",
"y c #6EFCF2",
"u c #71FBF1",
"i c #85F3E7",
"p c #8FF0E6",
"a c #82F4EA",
"s c #95FFEF",
"d c #9EFFEC",
"f c #8EFFF4",
"g c #8BFFF8",
"h c #95FFF2",
"j c #98FFF1",
"k c #91FFF8",
"l c #A1FEEC",
"z c #A9FAEB",
"x c #A0FDF0",
"c c #B7FFFF",
"v c #BEFFFF",
"b c #CBFFF7",
"n c #C3FFFC",
"m c #CBFFF9",
"M c #D4FFF5",
"N c #DBFCF3",
"B c #D5FFF9",
"V c #DAFFFF",
"C c #E6FFFF",
"Z c #EFFFFF",
"A c azure",
"S c #FFFFFF",
"D c None",
/* pixels */
"DDDDDDDDDDDDDDDDDDDDDDDDDDDDDDDDDDDDDDDDDDDDDDDDDDDDDDDDDDDDDDDD",
"D,,,,,,,,<,<<<<<<%%%%%%#%<,<,>,,,,<<%%%%%%%%%%%#%%%:,<,,,,<<XOOO",
"D,,,,<,,<,<,,<,<<%%%%%%%%<,<,,,,<,<>%%%%%%%#%%%%%#%:<<*,,,,<XOOO",
"D,,<,,,,<<,,,,,,,%%%%#%%%<,,,,,,,,,,%%%%$%%#%#%%%%%$<>,,<,,<OOOO",
"D<,><,,,<,,,<,,,,@%@%@@#%,,>,,,,,>,>:%%%##$$#%##%%@:<,,,,,,,OOOO",
"D,,<,BMMNSSSSSSSZdddddddzBMMMMMMMMMMzldddddd-444447-vBMMBMBMOOOO",
"D,<,,BBMNSSSSSSSZdddddddzBMMMMMMMMMMzldddddd54777744nMMMMMBBXOOO",
"D,,,<BMMNSSSSSSSZdddddddzBMMMMMNMMBBzddddddd04774484nMMMMMBBOOOO",
"D,,,,NNNNCCCCCCCVjhjdzzzzbbbbbbmbnnnshhhfkkh877t7747cnnnBMMMXXOO",
"D,<,,SSSC44444444uuuwBMMbddddddds444*,,<####%%%%<,,<yue9nMMMXXOO",
"D,,<,SSSC44444244uyyaBMMbldddddds444,,,>@%##%%%%<<<,tueunMMMXOOO",
"D<,,,SSSC444442-4yy9iBMBbdddddlls4441,,>%$%#%%%%<,,,teyenMMMXOOO",
"D,,,,SSSC44427445aaipbmbbddddhhsh444,,<<@%@@%%@%<1,1yuuyvbbmOOOO",
"D,,<,SSSC444-999iMBMbdddddddhyu9y4441,,,>>,>>>><yyyuyeuyhdddOOOO",
"D<,,,SSSC44449uuaBMBmdddddddheu998441,,<,<<<<<,>yuuuuuuuhdjdXOOO",
"D,><,SSSC4444yuuaMMBmdddddddhuue9444,,>,,,<,<,,,yuuuuuuuhdddXOOO",
"D<<<<AZZV4448rrwimmmnddddhhhfuu9y777,,,<,,,*1,1,yyuu99eyhdddOOOO",
"D%%%#lldheuyrdddddddldddjeeyu4447,,,,,<,42-4yuuuuuuu4447hddlOOOO",
"D%%%%lddhyuyrdddddddddddjueey4442<><,,,,44449uuuuuuy8-47sdddXOOO",
"D%%%%lldhueurdddddddddldh9eyy4447,,,<,<,24449ueeuuuy8444jdjlOOOO",
"D%%%#dddjrrrwddddldddhhhfe99y7242><,1,,,4055qwwwuu993247ggff.XXX",
"D%%##dddddddlxddddddhuuu94442,,,,<,,7444hddldddd-42-,>>,%%%# .  ",
"D%%%@dddddjlddddddddhueu94442,,,<,<,7444sddddldd-444,,,,%%$#    ",
"D%%%%dddllldddddddddjuuuu4442,,,,<>,7444sddlljdd0444,,,,*%##    ",
"D%%%%zzzzdddddddjjhsfeuuu44471,1,,,,5-55jdddjhhh4772<>>>##%$    ",
"D<,,,BBMbdddddddjeeeuuyeyuueu4444444sdddlldd0444,,<,$$%###%$    ",
"D,,,,MMBbdldddddhuuuuuuyuuuuu4444444hldddddd5444,,>,%%%####@    ",
"D,<>,MMbbdddddddhuuuuuueuuuuu4444444hdddlldl5444,,,,%%%%###$    ",
"D<<,,MMBbddddshhkeuuuuuuuy9994444487fhjhjjhs72771,,,#$#%%%%%    ",
"D,,<,MMBbdddhuuuuuuueyuuu44444448euuuuuu4548,,,,,,,,@$%#,<>,    ",
"D,<<,NBBblddhuuuuuuuuuuu944444444uuuuuuu8444,,<,,<,,*#%%<<>,    ",
"D,,<,BBBblddhuuuueuuuuuuy444444449uuuuuu44441,,,,,,,%%%%<<@*    ",
"D%%%@zzzjrrrruuueuuue444442-4uuuuuuu447844-4*>,,>,,<<<<<2747XOOO",
"D%%%@lddjuuuuuuuyuuuu44444448uuuuuuu84444422,>,><,,,<<,,2444XXOO",
"D%%%@lddjuuuuyuuuuuue44444448euuuuuu744444-4*<,>,,><<<<<7464XOOO",
"D%%%:lddjuueuuuuuu99944444844uuuuuuu44444424,,,,><,,<<<<7764XOXO",
"D%%%#dddjeuuuuuuu48844444uuuuuuuu757444444477272,<,,tyyy4444XOXO",
"D%%%#dddjeuuuuuu94-444444uuuuuuuu4444444444444441,,,yuuy4444XXOO",
"D%%%#dddsuuuuuuu942444444uyuuuueu774444444-47444,,,,yuuu7444XOOO",
"D%#%#dddjyuuuuuu944444484eyuuuuee4444544444444441>>,yuuu7424XXXX",
"D%%#%5050uuuu8844444-hhhjhhjk4444444444444444444ghkheuuu11*,    ",
"D%%%%7444uuuy8444444-ddddddds4444444444444444444sdddwqeu1<,>    ",
"D%%%%4444euuu8444444-dddddjds444444444-444444444hdlxwuuu,,,>    ",
"D%%$%74-4uuyy44444445dddlljds4444444442444744444sdljruuu1,,>.   ",
"D%%%%,,1=44464445hssddddj-0-4*=,,*,*7444*,,,fsssdddd58881,,>.   ",
"D%%%%<<<,6-44444-dldddsdh4444,<<<,,,7444,,<>hddddddd04781,,<  . ",
"D%%%%,<,,74444445ddddjddh4442,<<>,,>7444,,,,hddddddd0444,,,,.   ",
"D%%%%<<>,2-44444-ddddddds4442,,<,,<<44441,,,kddddddd04441,,,    ",
"D%%%%,,>,6444sjsddddd5--4,,*<%%%%%%%,*,,yttyrrrq---0=,**7777+OOO",
"D%%%%,,,,444-ddddddds44-7<<,<%%%%%%%,,,>yuuuuuu944441<,<7644OOOO",
"D%%%%,,<,4445ddlddddh4446,<,<%%%%%%%<,,,yuuuuuu944441<,<7474OOOX",
"D%%%%<>,,-745dddddddh4442,<<<%%%%:%%<,<,tyyuuu9e4447,<,,7478+OO+",
"D%%%%#@@&yyyerrre---41,,,@%%%%%%%<<<2772888544471,,1,,,<999y+OOO",
"D%$%%%%%&yuuuuuu94647<,,<:%%%%%%@<<,744447444444,,,>,,,,yeye+OOO",
"D%%%%%%%&eyuuuuu944-4>,<<%%%%%%%@,<<7424444424-4*,,*,<>,teyuOOOO",
"D%%%%%%$&uyuuuuu92-42,,><%%%%%:%:,<,447424444448,,,,,,<<y9uy+XXO",
"D%%%%><<<&;;;,1111,1,*%%%%%%@<<<,7774444=,,,*,,,7877tyyygjhh    ",
"D%%%%>><<#%%%>,,,,,,>%%%%%%%@,,<,6446444=,,*,,,,74449euujddd    ",
"D%%%%<<><%%%#<<<<<<<<%%#%:::%><<*4444444,,<<,,,<77789yuujdll    ",
"D:%:%<<<<%###,,,,,,,<$%%%%%%%,<<,6446844*,,,,,,,7778e9yuhdll   .",
"D+++OXO+X    XXXXXXo.X           XXXXXXX        +XOOO++O        ",
"D+O+OOOXX    .OOOOOOX       .    XOO+X+X     .  +XOOOOOO        ",
"DOOOOOXXX    XOOXOOOX         .  OOOOOXX.       OOOO+OOo  .     ",
"DOOOOOXXX    XOOOOOOX            OOOOOOo    .   OOOOXOOo        "
};
