/* XPM */
static char *result[] = {
/* columns rows colors chars-per-pixel */
"64 64 253 2 ",
"   c #F5BA1F",
".  c #F9BC1F",
"X  c #F8BD1F",
"o  c #F9BF1E",
"O  c #CA8E23",
"+  c #CB8F24",
"@  c #CA8E25",
"#  c #CB8F26",
"$  c #CC8D25",
"%  c #CD8F24",
"&  c #CC8D27",
"*  c #CE8D26",
"=  c #CD8E26",
"-  c #CE8F27",
";  c #CB8F28",
":  c #CE8D28",
">  c #CD8E28",
",  c #CE8F29",
"<  c #D08C26",
"1  c #D08E27",
"2  c #CC9025",
"3  c #CE9025",
"4  c #CC9027",
"5  c #CC9029",
"6  c #CF9731",
"7  c #D29531",
"8  c #D39730",
"9  c #D29533",
"0  c #D19633",
"q  c #D39632",
"w  c #D29732",
"e  c #D49431",
"r  c #D59630",
"t  c #D69731",
"y  c #D59532",
"u  c #D49433",
"i  c #D79532",
"p  c #D59733",
"a  c #D69733",
"s  c #D39634",
"d  c #D29734",
"f  c #D09830",
"g  c #D29830",
"h  c #D39931",
"j  c #D09832",
"k  c #D39833",
"l  c #D59831",
"z  c #D39835",
"x  c #F7BF20",
"c  c #F6BE21",
"v  c #F6BD23",
"b  c #F6BF22",
"n  c #F7BF22",
"m  c #F7BE24",
"M  c #F6BF24",
"N  c #F7BE26",
"B  c #F9BC21",
"V  c #F8BD21",
"C  c #FABD20",
"Z  c #F9BE20",
"A  c #F8BC23",
"S  c #FABD22",
"D  c #F9BE22",
"F  c #FABF22",
"G  c #FCBD20",
"H  c #FCBC22",
"J  c #FCBF22",
"K  c #F9BD24",
"L  c #FABD24",
"P  c #FABF24",
"I  c #F9BD26",
"U  c #FCBE24",
"Y  c #FCBE26",
"T  c #F8C022",
"R  c #F8C024",
"E  c #F1CD23",
"W  c #F3CD23",
"Q  c #F5CC21",
"!  c #F5CC23",
"~  c #F7CC23",
"^  c #F5CB25",
"/  c #F6CB25",
"(  c #F5C926",
")  c #F5CB27",
"_  c #F6CA27",
"`  c #F1CD25",
"'  c #F3CC25",
"]  c #F3CF25",
"[  c #F1CD27",
"{  c #F3CC27",
"}  c #F3CE27",
"|  c #F7CC25",
" . c #F6CD25",
".. c #F4CE25",
"X. c #F4CD27",
"o. c #F7CC27",
"O. c #F6CD27",
"+. c #F7CE26",
"@. c #F9CB25",
"#. c #F8C927",
"$. c #F9CB27",
"%. c #F7CB29",
"&. c #F7CB2B",
"*. c #F4CD29",
"=. c #F6CC29",
"-. c #F5CE28",
";. c #F7CE28",
":. c #F4CD2B",
">. c #F7CD2A",
",. c #F6CC2B",
"<. c #F5CE2A",
"1. c #F5CE2C",
"2. c #F9CA29",
"3. c #F9CD28",
"4. c #F9CC2A",
"5. c #FCD73B",
"6. c #FFD53D",
"7. c #FFD73C",
"8. c #FFD73D",
"9. c #FCD73F",
"0. c #FFD63E",
"q. c #FED73E",
"w. c #FFD73E",
"e. c #FFD73F",
"r. c #FFD83B",
"t. c #FFD93B",
"y. c #FDD93C",
"u. c #FED83C",
"i. c #FFD83D",
"p. c #FFD93D",
"a. c #FEDA3D",
"s. c #FFDB3D",
"d. c #FDD83E",
"f. c #FFD83F",
"g. c #FED93F",
"h. c #FFD93F",
"j. c #FFDA3F",
"k. c #FFDB3F",
"l. c #FFD640",
"z. c #FED740",
"x. c #FDD742",
"c. c #FED742",
"v. c #FFD742",
"b. c #FFD744",
"n. c #FDD840",
"m. c #FFD941",
"M. c #FDDB41",
"N. c #FFDA41",
"B. c #FFDB41",
"V. c #FFD842",
"C. c #FED942",
"Z. c #FFD943",
"A. c #FDDB43",
"S. c #FFDA43",
"D. c #FFDE43",
"F. c #FFD844",
"G. c #FED944",
"H. c #FFD845",
"J. c #FFD945",
"K. c #FFDA45",
"L. c #FBDF47",
"P. c #FFDD45",
"I. c #FDDF45",
"U. c #FEDE45",
"Y. c #FFDD47",
"T. c #FDDF47",
"R. c #FFDE46",
"E. c #FFDF46",
"W. c #FEDD49",
"Q. c #FFDE48",
"!. c #FFDF48",
"~. c #FEDF4A",
"^. c #FFDF4A",
"/. c #FFDE4C",
"(. c #FEDF4C",
"). c #F9E145",
"_. c #FBE045",
"`. c #FBE246",
"'. c #FCE144",
"]. c #FEE044",
"[. c #FFE145",
"{. c #FCE146",
"}. c #FEE046",
"|. c #FFE147",
" X c #FCE148",
".X c #FEE048",
"XX c #FFE049",
"oX c #FFE149",
"OX c #FDE249",
"+X c #FFE248",
"@X c #FCE04A",
"#X c #FFE04B",
"$X c #FFE84A",
"%X c #FFE94B",
"&X c #FFEB4A",
"*X c #FFEA4B",
"=X c #FDEC4B",
"-X c #FDEB4D",
";X c #FFEB4C",
":X c #FEEA4D",
">X c #FFEA4D",
",X c #FFEB4D",
"<X c #FFEA4E",
"1X c #FFEB4E",
"2X c #FEEA4F",
"3X c #FFEC4C",
"4X c #FEED4C",
"5X c #FFEC4D",
"6X c #FFED4D",
"7X c #FCED4E",
"8X c #FEEC4E",
"9X c #FFEC4E",
"0X c #FFEC4F",
"qX c #FFED4F",
"wX c #FFEA50",
"eX c #FFEB50",
"rX c #FEEC50",
"tX c #FEEC52",
"yX c #FFFB8D",
"uX c #FEFB8F",
"iX c #FFFB8F",
"pX c #FEFC8D",
"aX c #FFFF8D",
"sX c #FFFC8E",
"dX c #FFFD8E",
"fX c #FFFD8F",
"gX c #FCFF8E",
"hX c #FEFE8E",
"jX c #FFFE8F",
"kX c #FFFB90",
"lX c #FFFA91",
"zX c #FEFB91",
"xX c #FFFA92",
"cX c #FFFB92",
"vX c #FFFC90",
"bX c #FEFD90",
"nX c #FFFD90",
"mX c #FFFC91",
"MX c #FFFD91",
"NX c #FFFE91",
"BX c #FFFF91",
"VX c #FFFC92",
"CX c #FFFC93",
"ZX c #FFFD93",
"AX c #FFFB94",
"SX c #FFFE95",
"DX c #FDFFBA",
"FX c #FFFFBA",
"GX c #FCFFBC",
"HX c #FDFFBC",
"JX c #FFFEBC",
"KX c #FCFFBE",
"LX c #FDFFBE",
/* pixels */
"O.O.O.O.O.O.O.O.O.O.O.O.O.O.=.=.Z Z D D D D K D =.O.O.O.O.O.O.O.O.O.O.X.C D D D D D D D D D D D D D D V *.O.O.O.O.O.X.^ k q q q ",
"O.O.O.O.O.O.O.O.O.O.O.O.O.O.=.=.Z Z D D D D K D =.O.O.O.O.O.O.O.O.O.O.X.C D D D D D D D D D D D D D D V *.O.O.O.O.O.X.^ k q q q ",
"O.O.O.O.O.O.O.O.O.O.O.O.O.O.=.=.Z Z D D D D K D =.O.O.O.O.O.O.O.O.O.O.X.C D D D D D D D D D D D D D D V *.O.O.O.O.O.X.O.w q q q ",
"O.O. .!  . .O.%.+.3.-.-.-.+.+.;.P P P F F F Y U *...O.O.O.O.O.O.O.O.O.X.  S S S S D S n D . . . B B B S ' ! Q ! ! ! W O.7 w w w ",
"O.O.O.| mXjXMXCXHXLXGXGXHXDXDXDXeXeXeX9X9X9X8X9XzXiXyXyXyXyXyXyXyXyXyXnX7X-X=X=X=X=X*X%XN.p.p.p.h.h.h.z.BXbXnXbXbXbXnXxXu w w w ",
"O.O.O. .fXvXvXkXLXKXLXLXLXJXJXJXeXeXeX9X9X9X4X9XvXAXnXnXnXnXnXnXnXnXnXNX-X8X9X9X9X9X9X1Xv.f.f.f.v.v.v.0.dXdXnXdXdXnXsXkX7 w w w ",
"O.O.O.=.jXsXdXnXHXKXGXGXGXHXHXHXeXeXeX9XtXeX9X1XvXvXnXnXnXvXvXvXcXcXcXfX:XeX9X8X1X9XeX1Xv.V.h.h.f.f.f.w.VXcXhXhXvXcXbXhX0 q q q ",
"O.O.O.%.MXdXnXbXHXGXDXDXDXDXDXDXeXeXeX9XtXeX9X;XVXnXhXhXdXnXnXnXnXnXnXjX-X9X9X4X3X8X9X1XC.h.h.h.p.p.p.w.VXVXdXvXnXvXbXgX7 q q q ",
"O.O.O.-.FXGXHXHXv.v.h.h.h.h.h.h.}.}.}.~.nXVXnXVX1X9X4X4X8X9X9X9Xg.g.g.p.o.X.O.O.o Z x Z Z D D Z O. . .o..X^..X{.vXdXbXgX7 q q q ",
"O.O.O.;.JXGXKXGXv.v.h.h.h.h.V.V.{.{. X~.dXnXnXnX9XeX9X8X8XeX9X9XV.V.h.h.=.=.o.%.x n D D n K K K O.O.O.@.}..X!..XdXdXnXbX7 q q q ",
"O.O.O.4.HXLXGXDXh.h.V.V.V.g.g.g. X X@X!.vXvXvXsXtXrX9X8X8X1X;X;Xh.h.p.h.X.=. . .Z D n n n x x x O. . .~ }.!.~.(.VXVXhXVX7 q q q ",
"O.O.O.4.HXLXGXDXh.h.V.V.c.l.v.v.oXoXoXoXSXZXaXfX8XeXeXeXeXeX9X9Xv.v.f.V.*.&.O.X.c v V V V X X X o.o.o.{ |.!.~. XVXdXbXnXg q q q ",
"O.O.O.4.HXLXGXDXh.h.C.z.#XXX!..XcXcXcXpX4X:X:X*X3X;X9X1X{.}.E.D.M.g.a.h.X.=. ...%.=.O.O.O. . . .|.|.|.oX.XE.{.}.wXwX9XeXk q q q ",
"O.O.O.;.DXJXGXDXh.h.g.F.oX.X.X.XnXnXnXnXqX8X9X9X9X9X8X9X{..XE.P.A.C.g.h.X.=.O.O.O.O.O.O.O. . . ..X.X.X.X.X.X X.X9X1X3X:Xg q q q ",
"=.=.=.>.DXJXGXDXh.V.g.b.#X.X.X.XnXnXnXuX9X8X9X9X9X9X8X9X{..XE.P.A.V.h.f.X.=.O.O.O.O.O.O.O.O.O.O..X.X.X.X.X.X X.X9X1X3X:Xg q q q ",
"=.=.=.>.DXJXHXDXh.V.g.b.oX.X.X.XnXnXnXuX9X8X9X9X9X9X8X9X{..XE.P.S.V.f.f.X.=.O.O.O.X.O.O.O.O.O.O..X.X.X.X.X.X X.X9X1X3X:Xg q q q ",
"Z Z Z J 9X1XeXeX}.{.{.E.eX9X9X9X9X9X9X9X9X9X9X9X}.}.~.!.d.h.f.f.X.X.X.X.X.O.o.O.i.p.g.Z..X.X.X.X.X.X.XL.g.a.V.V.9X9X;X>Xg q q q ",
"Z Z Z J 9X1XeXeX}.{.{.E.9X9X9X9X9X9X9X9X9X9X9X9X}.}.~.!.d.h.f.f.X.X.X.X.X.O.o.O.i.p.g.Z..X.X.X.X.X.X.XL.g.a.V.V.9X9X;X>Xg q q q ",
"D D D U 9X1XwXwX}. X{.E.9X9X9X9X9X9X9X9X9X9X9X9X}.}.~.!.g.h.f.f.X.X.O.X.X.O.o.O.i.h.g.Z..X.X.X.X.X.X.XL.g.a.V.V.9X9X;X>Xg q q q ",
"D D D P 9X9X1X1X)._._.{.<X9X9X9X9X9X9XeXwX2XeX9X}.}.~.^.5.g.g.h.O.O.O.O.O. . .o.i.v.C.n.+XU.I.I.!.!.!./.q.g.p.h.8X9X3X:Xz a a a ",
"D D D P 8X9X9X1X1X1X9X9X:X9X9X9X9X9X9XwXOX XoX|.V.h.h.f./ O.O.O.O.O.O.O.h.w.z.z.:X-X-X-X-X8X8X8Xz.z.z.N._ =...X.S S H B $ & & & ",
"D D D P 8X9X9X9X9X9X9X9X9X9X9X9X9X9X9X2X X!..X}.V.h.C.V.) o.o.o.O.O.O. .w.h.v.v.9X8X9X9X9X9X9X9Xf.f.f.f.2.%.O.X.S D N K < * = = ",
"K K K P 8X3X8X9X4X3X9X9X9X8X8X8XeXeXeXeXOX!.~..XV.h.g.p.) =.=.=.O.O.O. .l.v.h.v.8X9X8X9X8X3X3X3XC.C.V.f...O.$.o.C Z m D : = = = ",
"D D D U 9XwX9X3X9X4X9X9X9X8X8X8XeXeXeXwXoX!.~..XC.g.h.i./ =.=.=.X.X.X.O.w.i.v.v.8X8X8X9X9X;X;X;Xh.h.h.p.O.O.=.=.C D n D > = = = ",
"=.=.=.] lXsXnXvX9X9X9X9X9X8X8X8X.X.X.X X.X.X.X XR.!..XW.a.i.i.i.h.h.h.g.>X;X8X8X8X9X9X9Xn.g.h.h.} X.*.=.x o Z Z Z D n D > = = = ",
"O.O.O...lXcXvXnX1XeX9X9X9X8X8X8X.X.X.X X.X.X}.{.!..X.XW.g.h.h.h.h.h.h.V.:X3X9X9X9X9X9X8Xl.h.f.f..... ...m C x Z Z D K D > = = = ",
"O.O.O. .uXVXnXnX9X1X9X9X9X9X9X9X.X.X.X.X.X.X!..X X X!.U.C.h.h.h.p.p.p.v.-X8X1X1X8X8X8XqXh.g.g.g.O.O.O.O.n K D n D D K D ; = = = ",
"O.O.O. .uXVXnXnX9X1X9X9X1X9X9X9X.X.X.X.X.X.X!..XT.T.U.R.h.h.h.h.N.N.h.V.9X8X0XqX8X8XeX1Xy.V.V.V.O.O.O.O.n K D D R P P Z - = = = ",
"O.O.O. .uXVXnXnX9X1X8X9X{.}.}.}..X.X.X.X.X.X.X!.G.V.C.h.h.h.h.h..X.XT.E.U.I.{.}.V.f.f.h.! o.o.o.O.O.O.O.n K n n &.=.X.$.# = = = ",
"O.O.O. .uXVXnXnX9X1X1X9X{..X.X.X.X.X.X.X.X.X.X}.V.h.h.h.h.h.h.h..X.X.X.X.X.X.X}.h.h.g.N.o.O.O.O.O.O.O.O.n K D Z =.o.O.=.< = = = ",
"=.=.=.O.uXVXnXnX1X<X<X9X{..X.X.X.X.X.X.X.X.X.X}.V.h.h.h.h.h.h.h..X.X.X.X.X.X.X}.h.h.g.h./ O.O.O.O.O.O.O.n D Z Z :.O.X.:.: > > > ",
"=.=.=.O.uXVXnXnX<X<X<X9X{..X.X.X.X.X.X.X.X.X.X}.V.h.h.h.h.h.h.h..X.X.X.X.X.X.X}.h.h.g.h./ O.O.O.O.O.O.O.x D Z Z :.X.X.:.: > > > ",
"Z Z Z Z 8X9X8X8X`.{. X.X.X.X.X.X.X.X.XT.h.p.h.h.h.h.p.N..X.X.X.X.X.X.XT.h.p.h.h.h.h.g.N.O.O.O.O.O.O.O.O.=.=.=.X.t.i.V.t.r 8 8 8 ",
"Z Z Z Z 8X9X8X8X{.{. X.X.X.X.X.X.X.X.XT.h.p.h.h.h.h.p.N..X.X.X.X.X.X.XT.h.p.h.h.h.h.g.N.O.O.O.O.O.O.O.O.=.=.=.X.t.p.V.p.r 8 8 8 ",
"D D D D 8X9X8X8X}.}..X.X.X.X.X.X.X.X.XT.h.p.h.h.h.h.p.h.T..X.X.X.X.X.XT.h.p.h.h.h.h.g.h.^ O.O.O.O.O.O.O.O.O.O.X.p.a.C.a.8 q q q ",
"D D D D 8X9XrXrX.X.X.X.X.X.X.X.XL.L.L.R.h.h.h.V.J.H.V.S.!..X.X.XL.L.L.R.h.h.h.h.h.V.V.u.:.O.O.O.O.O.O.o.` W ^ ^ h.h.C.g.8 q q q ",
"D D D D 8X9XrXrX.X.X.X.X.X.X.X.Xg.g.g.h.N.h.h.V..X.XL. XT..X.X.Xg.g.g.h.N.h.h.h.h.h.h.p.p.h.h.h.O.O.O.` '..X.X}.h.i.C.g.8 q q q ",
"D D D D 8X9X8X8X.X.X.X.X.X.X.X.Xa.a.a.h.h.h.h.V. X X.X!.!..X.X.Xa.a.a.h.h.h.h.h.h.h.p.h.h.g.g.g.O.O.O.W }.^. X~.p.p.C.g.8 q q q ",
"D D D S 9X1X9X8X.X@X.X.X.X.X.X.Xh.h.h.f.h.h.V.C.E..X~.^.~..X.X.Xh.h.h.h.h.h.h.h.h.h.h.h.h.h.h.h.......E .X!.}.}.h.f.V.a.w q q q ",
"D D D D 1X1X9X9X X~..X!.!.}.}.}.h.h.h.h.g.h.C.C.E.}..X X X}.}.}.h.h.h.h.h.h.h.h.h.h.h.h.h.h.f.f.X.X.O.[ ~..X}.}.p.i.f.p.q 8 8 8 ",
"D D D D z.C.h.f.!.~. X!.x.V.V.V.h.h.h.h.;X;X9X1X9X9X<X1XV.h.h.h.h.h.h.h.h.h.h.h.h.h.h.h.h.h.h.h.8X8X8X9X~.}.}..X*.=.o.;.= # # # ",
"D D D n w.h.h.f..X!. X!.V.h.h.h.h.h.h.g.3X3X8X9X9X9X;X4Xg.h.h.h.h.h.h.h.h.h.h.h.h.h.h.h.h.h.h.h.9X9X9XeX!.{..X.X..O.o.>.* % % % ",
"D D D K 7.r.p.p.{.}. X.XB.h.h.h.f.f.f.v.9X9X9X9X9X9X9XwXV.g.g.g.g.g.g.V.h.p.h.p.h.h.h.h.p.h.g.g.9X9X9X8X}.{..X.X=.X.O.-.# = = = ",
"D D D I w.e.f.i.#XoXoX|.p.h.h.h.h.h.h.V.:X8X9X9X9X9XwXwXa.h.h.h.h.h.h.q.h.p.h.V.f.f.p.h.g.h.h.h.9X9X9X3X[.].!.Q.%.%.O.-.= * * * ",
"D D Z Z <.=.o.$.a.h.h.p.8.h.h.h.3X3X3X:X1X9X8X1XC.f.f.h. .o.o.o.O.O.O.*.h.V.h.h.*.X.o.=.5X6X6X6X9X9X9X,X6.d.n.x.%.o.O.-.= * * * ",
"D D D V ..X.O.=.h.h.h.h.h.h.h.h.9X9X9X9X9X9X3X;Xg.h.f.h.O.O.O.O.O.O.O.O.V.g.C.V.X.X.O...qX9X9X9X9X9X9X3Xf.h.C.C.O.o.O.-.= = = = ",
"D D D V  .X.O.=.h.h.h.h.h.h.h.h.9X9X9X9X9X9X3X3Xg.f.f.h.O.O.O.O.O.O.O.O.V.g.C.V.O.O.O...qX9X9X9X9X9X9X3Xf.h.C.V.X.O.O.-.= > > > ",
"D D D V  .O.O.=.h.h.h.h.h.h.h.h.9X9X9X9X9X9X3X3Xh.f.f.h.O.O.O.O.O.O.O.O.V.g.C.V.O.O.O...qX9X9X9X9X9X9X3Xf.f.C.V.X.O.O.-.= > > > ",
"D D D V  .O.O.=.h.h.h.V.9X9X9X9X9X9X9X3Xq.g.g.h. ... .o.Z D D D D D D D ^  .o.o.}..X.X.X.X.X.X.Xh.h.h.h.X.=.O.X.p.g.f.V.r 8 8 8 ",
"D D D V O.O.O.=.h.h.h.V.9X9X9X9X9X9X9X3Xq.g.g.h. ... .o.Z D D D D D D D ^  .o.o.}..X.X.X.X.X.X.Xh.h.h.h.X.=.O.X.p.g.h.V.r 8 8 8 ",
"D D D V O.=.O.=.h.h.h.V.9X9X9X9X9X9X9X3Xq.g.g.h. . . .o.Z D D D D D D D ^  .o.o.}..X.X.X.X.X.X.Xh.h.h.h.X.=.O.X.p.g.h.V.r q q q ",
"D D D L 4.,.O.o.h.N.Z.K.eX9X9X9X3X3X3X0Xa.f.V.g.=.*.*.%.n D D D V V V D _ O.o.=.|. X}.}.}..X.X}.V.h.h.m.=. .O.O.V.v.V.c.y q q q ",
"D D D v c D Z x }.{.E.Y.T.I.I.I.h.h.h.h.o.%.X.O.n D D D D D D D *.*.*.( p.S.N.k.d.d.h.h.h.V.v.v.-.;.;.O.O.O.o.O..X.XE.!.6 q q q ",
"D D D M n K b M !..X{..X!.E.E.E.h.h.h.f.) O.X.X.Z Z D D n D Z Z =.=.O.;.C.F.C.F.h.h.i.i.i.f.f.f.O.O.o. .O.O.o.O. X X}..X6 q q q ",
"D D D m D S n m ^.~.@X@X.X!.!.!.h.h.h.N.O.X.=.,.S D D D n D Z Z =.=.X...q.V.f.p.V.h.C.C.g.h.h.f.O.O.O.o.O.O.o. ..X.XE..X7 s s s ",
"D D D K x Z D N .X X.X X{..X.X.Xp.p.p.B.O...=.:.D S n D n Z Z Z X.X.X.} q.V.i.t.h.f.V.V.V.f.f.f.X.X.X.o.O.O.| O.}. X}. Xe q q q ",
"D D D V  .O.X.X.S C S V %.O.O.O.O.O.O.=.T Z S D S D D R ,.=.,.:.t.t.p.h.h.V.f.f.*.X.X.X.O. . . .p.p.p.V.!..X~..XrX8X;X<X& ; ; ; ",
"D D D B X.X.*.O.n Z G X =.*.*.*.O.O.O.=.P C D S D D n R =.o.O.O.f.f.h.V.V.h.f.f.O.O.O.O.O.| | | a.a.a.V.!. X X X9X9X&X;X$ # # # ",
"L L L B =.X.X.=.Z C H . %.X.X.X.O.O.O.=.F D S S S S K R *.O.X.X.f.f.f.f.f.f.h.h.O.O.X.X.O.O.O.O.g.g.C.V.E..X^..X1X3X1X9X@ = = = ",
"P P P S #.o.X.=.x Z Z X %.O.O.O.O.O.=.) x V V V V V A R >.>.1.1.s.j.j.j.j.k.j.h.=.=.X.X.X.=.=.*.j.N.Z.9.OXOX#XoX1X8X3X$X> = = = ",
"w w d s 9 a t l , 5 4 > h l p p a a t f , # = = = = ; 1 + = > > 8 8 q q q q w q - - 2 2 2 3 , , 8 8 q i w w j f O @ @ > # = = = ",
"q q q q q q s q > # # & y q q q q q q y , # = = = = # = = = > > 8 8 q q q q s q ; # = = = = > > 8 8 q q q q s q ; # = = = = = = ",
"q q q q q q s q ; # = & y q q q q q q y , = = = = = = = = = > > 8 8 q q q q s q ; # = = = = > > 8 8 q q q q s q ; # = = = = = = ",
"q q q q q q s q ; # = & y q q q q q q y , = = = = = = = = = > > 8 8 q q q q s q ; # = = = = > > 8 8 q q q q s q ; # = = = = = = "
};
