/* XPM */
static char *result[] = {
/* columns rows colors chars-per-pixel */
"64 64 20 1 ",
"  c #656565",
". c gray40",
"X c #686868",
"o c DimGray",
"O c #727272",
"+ c gray45",
"@ c #747474",
"# c #767676",
"$ c #777777",
"% c gray49",
"& c #7E7E7E",
"* c gray50",
"= c #808080",
"- c #818181",
"; c #8D8D8D",
": c #8E8E8E",
"> c gray56",
", c #909090",
"< c #929292",
"1 c #939393",
/* pixels */
">>>>>>>>>>>>>>>>****@@@@@@@+****@@@@.XXX@@@@@@@@****************",
">>>>>>>>>>>>>>>>****@@@@@@@+****@@@@.XXX@@@@@@@@****************",
">>>>>>>>>>>>>>>>****@@@@@@@+****@@@@.XXX@@@@@@@@****************",
">>>>>>>>>>>>::::***&$@@@@@@+&***@@+OooXX@@@+####*********=*=&&&&",
"&&&&&&&&+++O****+++#***********==-====**===-....XXX.@@@@*=*&@@@@",
"********@@@+=***@@@#***********************= XXXXXXo@@@@*=*&@@@@",
"********@@@+=***@@@#***********************= XXXXXXo@@@@*=*&@@@@",
"********@@@+=***@@@#***********************= XXXXXXo@@@@*=*&@@@@",
"***=@@@@XXXXXXXX@@@@@@@@@@@@.XXX@@@@@@@@@@@+=*******************",
"***=@@@@XXXXXXXX@@@@@@@@@@@@.XXX@@@@@@@@@@@+=*******************",
"***=@@@@XXXXXXXX@@@@@@@@@@@@.XXX@@@@@@@@@@@+=*******************",
"***=@@@@XXXXXXXX++@@@@@@+++OXXXX@@@@@@@@+++O=*******************",
"********>>>>>>>>===%>>>>===*****>>>>>>>>====********@@@@@@@@@@@@",
"********>>>>>>>>***=>>>>********>>>>>>>>************@@@@@@@@@@@@",
"********>>>>>>>>****:>>>********>>>>>>>>************@@@@@@@@@@@@",
"********>>>>>>>>****:>>>********>>>>>>>>************@@@@@@@@@@@@",
"@@@+=******=@@@@@@@@@@@@*=*=@@@@****>>>>>>>>>>>>>>>,@@@@********",
"@@@+=******=@@@@@@@@@@@@*=*=@@@@****>>>>>>>>>>>>>>>,@@@@********",
"@@@+=******=@@@@@@@@@@@@***=@@@@****>>>>>>>>>>>>>>>,@@@@********",
"+++@=*******@###########***=@@@@****>>>>>>>>,,,,>>>:$$$$===%====",
"===%,>>>***&=***************-******&#######+XXXX####XXXX@@@#>>>>",
"***=>>>>***************************&#@@@@@@+XXXX@@@#XXXX@@@#>>>>",
"***=>>>>***************************&#@@@@@@+XXXX@@@#XXXX@@@#>>>>",
"***=>>>>***************************&#@@@@@@+XXXX@@@#XXXX@@@#>>>>",
"@@@#=******&,>>>>>>>>>>>@@@@:>>>>>>>#@@@@@@@@@@@****************",
"@@@#=******&,>>>>>>>>>>>@@@@:>>>>>>>#@@@@@@@@@@@****************",
"@@@@*******&,>>>>>>>>>>>@@@@:>>>>>>>#@@@@@@@@@@@****************",
"@@@@=******&<,>>>>>>,>>>@@@@>>>>>>>>####@@@@@@@@***&************",
"@@@@#@@@XXXXXoXX@@@@oXXX@@@+@@@@***=&&&&@@@@@@@@+++@&***********",
"@@@@@@@@XXXXXXXX@@@@oXXX@@@@@@@@********@@@@@@@@@@@@&***********",
"@@@@@@@@XXXXXXXX@@@@oXXX@@@@@@@@********@@@@@@@@@@@#************",
"@@@@@@@@XXXXXXXX@@@@oXXX@@@@@@@@********@@@@@@@@@@@#************",
">>>>>>>>>>>,****>>>:********,>>>>>>>>>>>********************@@@@",
">>>>>>>>>>>,****>>>:********,>>>>>>>>>>>********************@@@@",
">>>>>>>>>>>,****>>>:********,>>>>>>>>>>>********************@@@@",
">>>>>>>>>>>,****,,,,****&&&&;>>>>>>>,,>>****&&*************&@@@@",
"&&&&&&&&>>>,************,,,>,>>>>>>,&&*****&1,>>>>>>>>>>>>>>&&&&",
"********>>>,************>>>>>>>>>>>,&******&,>>>>>>>>>>>>>>>****",
"********>>>,************>>>>>>>>>>>,&******&,>>>>>>>>>>>>>>>****",
"********>>>,************>>>>>>>>>>>,*******&,>>>>>>>>>>>>>>>****",
"XXXX****@@@+=***@@@@@@@@XXXXXXXX@@@+****@@@#&******=@@@@@@@@@@@@",
"XXXX****@@@+=***@@@@@@@@XXXXXXXX@@@+=***@@@#&******=@@@@@@@@@@@@",
"XXXX****@@@+=***@@@@@@@@XXXXXXXX@@@+=***@@@#&******=@@@@@@@@@@@@",
"XXXX****@@+O=***@@@@@@@@XXXXoXXX###O=***@@+O*******=@@@@++@@@@@@",
"***=***==-==&**==-=%>>>>>>>,&===****&**==-==****>>>><>>>===%>>>>",
"*******************=>>>>>>>>********************>>>>>>>>***=>>>>",
"********************:>>>>>>>********************>>>>>>>>****:>>>",
"********************:>>>>>>>********************>>>>>>>>****:>>>",
"***=@@@@@@@@@@@@****:>>>==**@@@@@@@@********XXXXXXXo@@@@XXXX@@@@",
"***=@@@@@@@@@@@@****:>>>==**@@@@@@@@********XXXXXXXo@@@@XXXX@@@@",
"***=@@@@@@@@@@@@****:>>>***&+@@@@@@@********XXXXXXXo@@@@XXXX@@@@",
"&&&*+@@@++++@@@@****>,>>***=@@@@@@@@*******&XoooXXX.@@@@ooo @@@@",
">>>><,,,====@@@@+++@%*&&***=@@@@@@@@#+++********###@+@@@@@@#>>>>",
">>>>>>>>****#@@@@@@#*******=@@@@@@@@@@@@********@@@@@@@@@@@#>>>>",
">>>>>>>>****#@@@@@@@&******=@@@@@@@@@@@@********@@@@@@@@@@@#>>>>",
">>>>>>>>****#@@@@@@@&******=@@@@@@@@@@@@********@@@@@@@@@@@#>>>>",
"***=@@@@@@@+=***********************************>>>>>>>>>>>>>>>>",
"***=@@@@@@@+=***********************************>>>>>>>>>>>>>>>>",
"****+@@@@@@@************************************>>>>>>>>>>>>>>>>",
"****@@@@@@@@=***********========****&&*****=&***>>>>>>>>>>>>>>>>",
"****&&&&&&&*************@@@@@@@@***&1,>>>>>>****====####&&&&&&&&",
"************************@@@@@@@@***&,>>>>>>>********@@@@********",
"************************@@@@@@@@****>>>>>>>>********@@@@********",
"************************@@@@@@@@****>>>>>>>>********@@@@********"
};
