/* XPM */
static char *result[] = {
/* columns rows colors chars-per-pixel */
"64 64 58 1 ",
"  c #575A56",
". c #5A575B",
"X c #585858",
"o c #585B58",
"O c #5A5A5A",
"+ c #5B5B5B",
"@ c #595C59",
"# c #5B585C",
"$ c #5C5A5D",
"% c #606360",
"& c gray39",
"* c #616461",
"= c #636562",
"- c #646464",
"; c #686B68",
": c gray42",
"> c #6A6C69",
", c #696F68",
"< c #6B6D6A",
"1 c #6C6F6B",
"2 c #6C6C6C",
"3 c #6D6D6D",
"4 c #767676",
"5 c #777777",
"6 c #777478",
"7 c #787679",
"8 c #7A747B",
"9 c #7A777A",
"0 c gray47",
"q c #7B787B",
"w c #7E7B7F",
"e c #7C7F7C",
"r c #7E7E7E",
"t c gray50",
"y c #7D807D",
"u c #7E817E",
"i c #80827F",
"p c #7F7D80",
"a c #817E81",
"s c #827F82",
"d c #808080",
"f c #818181",
"g c #8A878A",
"h c #8D878D",
"j c #888888",
"k c #898989",
"l c #8B888B",
"z c #8B8B8B",
"x c #8C898D",
"c c #8E888F",
"v c #8D8D8D",
"b c #9A979B",
"n c #9B9B9B",
"m c #9B989C",
"M c #9C9A9D",
"N c #9E989F",
"B c #9E9B9E",
"V c #9F9C9F",
/* pixels */
"llllBMMMMMMMMMMMMMMMMMMMMMMMMMMMMMMMMMMMMMMMMMMMllllllllllllOOOO",
"llllBMMMMMMMMMMMMMMMMMMMMMMMMMMMMMMMMMMMMMMMMMMMllllllllllllOOOO",
"llllBMMMMMMMMMMMMMMMMMMMMMMMMMMMMMMMMMMMMMMMMMMMllllllllllllOOOO",
"gggcMmmmMMMMnMMMMMMMMMMMMMMMMMMMMMMNMMMMMMMMMMMMggggggggllllOOOO",
"MMMMstaallllttttllllllllllllllllllllatttttttttttttttttttklllOOOO",
"MMMMdttallllttttllllllllllllllllllllttttttttttttttttttaallllOOOO",
"MMMMstytlhhlttttkkllllllllllllllllllaatttttttyyyttttttttklhh##OO",
"MMMMstttllllatttllllllllllllllllllllaattttttttttaaatttttkkll#OOO",
"MMMmlklkttapxkkkttttttttttttttttttttttttkklllkkk7774ttttttap$OOO",
"MMMmlklltytpxlllttttttttttttttttttttttttlllhhlll8876atyyyytr+OOO",
"MMMmlklltytrzlllttttttttttttttttttttttaallllllll7774tttttttr+OOO",
"MMMmlklktattkgggrrrtttattttttrttttttttaaxxxlglll7774frrrrrrtOOOO",
"MMMnrerr4644dtttzzzkkklktttt0500ttttzjggaatf4777dddd55555555+OOO",
"MMMMrttt7777ttttllllllllattr5777tttagllltttt5777ttta67777777+OOO",
"MMMMrtta7877ttttllllllhlattt0777tttagllltttt5777ttta67777777+OOO",
"MMMMrtta7875ttttllllllhlattt0777tttagllltttt5777ttta47757777+OOO",
"MMMM67772<,<97777776ttytkllkttttttts77777776tttt77771,,<ttttXOOO",
"MMMM6777<<,<97777776ttytkllkttttttts77777776tttt77771,,<ttttXOOO",
"MMMM6778<<,<07777776ttytkllkttttttts77777776tttt77771,,<ttttXOOO",
"MMMB6778<<<<57777777saaallllssssdddd45777779attt77792<<2taawOOOO",
"lllx9778<<<<ttttttta9777777966664444dtaallll9000111:rrer4667+OOO",
"llll7778<<<1ytttttta6777777777775555ttaallll9555<<<<ttyt5777+OOO",
"llll7787<,<1ytttttta6777777777777775ttaallll9777222<ttta7775+OOO",
"hhhh8877<,<1ytttttta6777777777777775ttaallll97752<<<yytt5775+OOO",
"<<<<<<<<<<<<<<<<<<<222<<<<<<<<<<<<<,,,<<<<<<<<<<<<<<<<222222OOOO",
"<<<<<<<<<<<<<<<<<<<<<<<<<<<<<<<<<<<,,,<<<<<<<<<<<<<<,,<<<<<2OOOO",
"<<<<<<2222<<<<<<222<<<<<<<<<<<<<<<<<<<<<<<<<<<<<222<<<2222<<oOOO",
">>>>>>3322<<<<<<222<<<<<<<111111<<11><<<<<<<<<<<222<<<2222<1oOOO",
"******&&OOoooooo&&&*****  oooooo  o =%**********&&&***&&&&*%=---",
"&&&&&&&&OOOOOOOO&&&&&&&&OOOOOOOOOOOO&&&&&&&&&&&&&&&&&&&&&&&&&&&&",
"&&&&&&&&OOOOOOOO&&&&&&&&OOOOOOOOOOOO&&&&&&&&&&&&&&&&&&&&&&&&&&&&",
"&&&&&&&&OOOOOOOO&&&&&&&&OOOOOOOOOOOO&&&&&&&&&&&&&&&&&&&&&&&&&&&&",
"MMMMMMMMMMMMMMMMMMMMMMMMllllOOOOlllgMMMMMMMMMMMMMMMMMMMMMMMMMMMM",
"MMMMMMMMMMMMMMMMMMMMMMMMllllOOOOlllgMMMMMMMMMMMMMMMMMMMMMMMMMMMM",
"MMMMMMMMMMMMMMMMMMMMMMMMllllOOOOlllgMMMMMMMMMMMMMMMMMMMMMMMMMMMM",
"MMMBMMmmmmmmmMMMMMMNBBBBllll.OOOlllgVBNMMnMBbMMMMMMMMMMMMMMMnMMM",
"7779xxlllllllxxxxxxxattttttr+OOOBBBVgxhlattrvxxxxxxxxxxxxxxxdddd",
"7777llllllllllllllllrttttttr+OOOMMMMllhlattrzllllllllllllllltttt",
"7778hhlllllllkkklllktttttttr+OOOMMMNhhllttaallllllllllhhhlllattt",
"7777lllkkklllllllllktttttttr+OOOMMMMlllkttaallllllllllhhllkktttt",
"lllxaattttttkkkktttttttt5550XOOOMMMMaatt5577llll7779glhlattttttt",
"lllzttyyytttlllltttttttt5550XOOOMMMntttt5777llll7779glllttyyyttt",
"lllzttttttaallllttttttyt7779.OOOMMMMttaa7777llll7779jklktytttttt",
"xxxkddttddaaxxxxtttttttt5550XOOOMMMBfdaa7740klll7774kklltttttttt",
"tttdkkjjklgxattttttt5577<,<<@OOOMMMM4566sstd5777ddduyytttyttzjjj",
"tttagllllllxttttttta7777<<<<@OOOMMMM6777tttt4777ttttttttttttjlll",
"tttsllllllllrtttttta7777<<22@OOOMMMM6777tttt4777ttttttttttttjlll",
"tttsllllllllrtttttta7777<<22@OOOMMMM6777tttt4777ttttttttttttjlll",
"tttttttttttttttt7777dttt7770OOOOllll77777775dtttlllltttt77777777",
"tttttttttttttttt7777dttt7770OOOOllll77777775dtttlllltttt77777777",
"ttttttttttyttttt7776tttt7779OOOOllll77777774ttttlllltttt77777777",
"aaaaaaatduuipaaa7770tttt7770oOOOlllc97667745daaalllxrttt44767777",
"77777775:>>;q775<<<2>:::7750oOOOlllladaasstt07777777ttttttsa6777",
"777777752<,>9777,,,<<<227750oOOOlllldttttttt47777777tttttttr5777",
"77777787<<<>97752<<<<2<<7879OOOOlllkdttttttt47777775tttttttt0777",
"88888877<<<>9888<<<<<2<<7779OO##lllldttttttt47777775tttttttt0777",
"<<<<<<<<<<<<<<<<<<<<<2<<22<2+OOO<<<<<<<<<<<<<<<<<<<<<<<<<<<<<<<<",
"<<<<<<<<<<<<,<<<<<<<<2<<<,<2+OOO<<<<<<<<<<<<<<<<<<<<<<<<<<<<<<<<",
"<<<<<<2222<<<<<<222<<<<<<<<>oOOO<<<<<<<<<<222<<<222<<<2222<<<222",
">>>>>>333311111133311111<<<<oOOO11<<<<<<<<222<<<222<<<2222<<<222",
"******&&&&******&&&*****oooooOOO  oooooo==---===---===----===---",
"&&&&&&&&&&&&&&&&&&&&&&&&OOOOOOOOOOOOOOOO&&&&&&&&&&&&&&&&&&&&&&&&",
"&&&&&&&&&&&&&&&&&&&&&&&&OOOOOOOOOOOOOOOO&&&&&&&&&&&&&&&&&&&&&&&&",
"&&&&&&&&&&&&&&&&&&&&&&&&OOOOOOOOOOOOOOOO&&&&&&&&&&&&&&&&&&&&&&&&"
};
